<svg width="87" height="87" viewBox="0 0 87 87" fill="none" xmlns="http://www.w3.org/2000/svg">
<path d="M13.5431 17.4707H16.2517V20.1585H13.5431V17.4707Z" fill="#00A5C7"/>
<path d="M18.9603 17.4707H21.669V20.1585H18.9603V17.4707Z" fill="#00A5C7"/>
<path d="M24.3777 17.4707H27.0863V20.1585H24.3777V17.4707Z" fill="#00A5C7"/>
<path d="M23.0233 55.1001H31.1493V57.7879H23.0233V55.1001Z" fill="#00A5C7"/>
<path d="M33.8579 55.1001H36.5666V57.7879H33.8579V55.1001Z" fill="#00A5C7"/>
<path d="M62.2987 72.5709C61.9396 72.5708 61.5951 72.4292 61.3412 72.1771L57.2782 68.1454C57.0243 67.8934 56.8817 67.5516 56.8817 67.1953C56.8817 66.8389 57.0243 66.4972 57.2782 66.2451L61.3412 62.2134C61.5966 61.9686 61.9387 61.8332 62.2938 61.8362C62.6489 61.8393 62.9886 61.9806 63.2397 62.2298C63.4908 62.479 63.6333 62.816 63.6364 63.1684C63.6394 63.5208 63.5029 63.8603 63.2562 64.1137L60.1508 67.1953L63.2562 70.2769C63.4456 70.4648 63.5745 70.7043 63.6267 70.9649C63.679 71.2256 63.6522 71.4957 63.5497 71.7413C63.4472 71.9868 63.2737 72.1967 63.051 72.3443C62.8283 72.492 62.5665 72.5709 62.2987 72.5709Z" fill="#00A5C7"/>
<path d="M73.1333 72.5709C72.8655 72.5709 72.6037 72.492 72.3811 72.3443C72.1584 72.1967 71.9849 71.9868 71.8824 71.7413C71.7799 71.4957 71.7531 71.2256 71.8053 70.9649C71.8575 70.7043 71.9865 70.4648 72.1758 70.2769L75.2813 67.1953L72.1758 64.1137C71.9291 63.8603 71.7926 63.5208 71.7957 63.1684C71.7988 62.816 71.9412 62.479 72.1923 62.2298C72.4434 61.9806 72.7831 61.8393 73.1382 61.8362C73.4933 61.8332 73.8354 61.9686 74.0908 62.2134L78.1538 66.2451C78.4077 66.4972 78.5503 66.8389 78.5503 67.1953C78.5503 67.5516 78.4077 67.8934 78.1538 68.1454L74.0908 72.1771C73.8369 72.4292 73.4925 72.5708 73.1333 72.5709Z" fill="#00A5C7"/>
<path d="M66.3617 75.2586C66.2707 75.2592 66.1799 75.2502 66.0909 75.2318C65.9165 75.1965 65.7509 75.1275 65.6035 75.0287C65.4561 74.9299 65.3297 74.8033 65.2316 74.656C65.1335 74.5088 65.0656 74.3438 65.0318 74.1704C64.998 73.9971 64.9989 73.8189 65.0345 73.646L67.7431 60.2069C67.7726 60.0289 67.8379 59.8586 67.9351 59.7062C68.0324 59.5538 68.1595 59.4224 68.309 59.3198C68.4585 59.2171 68.6273 59.1454 68.8053 59.1089C68.9833 59.0724 69.1669 59.0718 69.3451 59.1072C69.5234 59.1425 69.6926 59.2131 69.8428 59.3148C69.9929 59.4165 70.1209 59.5471 70.2191 59.6988C70.3173 59.8506 70.3838 60.0205 70.4144 60.1983C70.4451 60.3761 70.4394 60.5582 70.3976 60.7337L67.689 74.1728C67.6287 74.4783 67.4635 74.7536 67.2214 74.9516C66.9793 75.1497 66.6755 75.2582 66.3617 75.2586Z" fill="#00A5C7"/>
<path d="M16.2517 30.9098V63.1635C16.2517 63.52 16.3944 63.8618 16.6484 64.1138C16.9024 64.3659 17.2468 64.5075 17.606 64.5075C17.9652 64.5075 18.3097 64.3659 18.5637 64.1138C18.8177 63.8618 18.9604 63.52 18.9604 63.1635V30.9098C18.9604 30.5534 18.8177 30.2116 18.5637 29.9595C18.3097 29.7075 17.9652 29.5659 17.606 29.5659C17.2468 29.5659 16.9024 29.7075 16.6484 29.9595C16.3944 30.2116 16.2517 30.5534 16.2517 30.9098Z" fill="#00A5C7"/>
<path d="M28.2131 28.82C28.1144 28.6731 27.9875 28.547 27.8397 28.4488C27.6919 28.3506 27.526 28.2823 27.3516 28.2477C27.1771 28.2131 26.9976 28.213 26.8231 28.2473C26.6486 28.2816 26.4826 28.3497 26.3347 28.4477L22.2717 31.1355C22.0862 31.2582 21.9341 31.4245 21.8289 31.6196C21.7237 31.8146 21.6687 32.0324 21.6687 32.2536C21.6687 32.4749 21.7237 32.6927 21.8289 32.8877C21.9341 33.0828 22.0862 33.249 22.2717 33.3718L26.3347 36.0596C26.4826 36.1575 26.6486 36.2256 26.8231 36.2599C26.9976 36.2942 27.1771 36.2941 27.3516 36.2595C27.526 36.2249 27.6919 36.1566 27.8397 36.0584C27.9875 35.9602 28.1144 35.8341 28.2131 35.6873C28.3118 35.5405 28.3804 35.3758 28.415 35.2026C28.4495 35.0295 28.4494 34.8513 28.4146 34.6782C28.3797 34.5051 28.3109 34.3405 28.2119 34.1939C28.113 34.0472 27.9859 33.9213 27.838 33.8233L25.4611 32.2536L27.8339 30.6839C27.9822 30.5863 28.1097 30.4607 28.209 30.3141C28.3084 30.1676 28.3776 30.0031 28.4128 29.8299C28.448 29.6568 28.4485 29.4785 28.4143 29.3052C28.38 29.1319 28.3116 28.967 28.2131 28.82Z" fill="#00A5C7"/>
<path d="M36.7941 35.6872C36.8928 35.8341 37.0197 35.9602 37.1675 36.0584C37.3153 36.1566 37.4812 36.2249 37.6556 36.2595C37.8301 36.2941 38.0096 36.2942 38.1841 36.2599C38.3586 36.2256 38.5246 36.1575 38.6726 36.0595L42.7355 33.3717C42.921 33.249 43.0731 33.0827 43.1783 32.8876C43.2835 32.6926 43.3385 32.4748 43.3385 32.2536C43.3385 32.0323 43.2835 31.8145 43.1783 31.6195C43.0731 31.4244 42.921 31.2582 42.7355 31.1354L38.6726 28.4476C38.3737 28.2498 38.0079 28.1779 37.6556 28.2477C37.3034 28.3175 36.9935 28.5233 36.7941 28.8199C36.5948 29.1164 36.5223 29.4794 36.5926 29.829C36.663 30.1786 36.8704 30.4861 37.1693 30.6839L39.5461 32.2536L37.1733 33.8233C37.025 33.9209 36.8975 34.0465 36.7982 34.1931C36.6989 34.3396 36.6296 34.5041 36.5944 34.6773C36.5592 34.8504 36.5587 35.0287 36.5929 35.202C36.6272 35.3753 36.6956 35.5402 36.7941 35.6872Z" fill="#00A5C7"/>
<path d="M34.286 26.9466C34.1172 26.8908 33.939 26.8685 33.7615 26.8811C33.5841 26.8936 33.4109 26.9408 33.2518 27.0198C33.0927 27.0988 32.9508 27.2081 32.8343 27.3415C32.7178 27.4749 32.6289 27.6298 32.5728 27.7973L29.8641 35.8607C29.7506 36.1993 29.7773 36.5688 29.9383 36.8879C30.0994 37.207 30.3815 37.4495 30.7228 37.5621C31.064 37.6748 31.4363 37.6483 31.7579 37.4885C32.0794 37.3287 32.3238 37.0487 32.4373 36.7101L35.146 28.6467C35.2022 28.479 35.2245 28.302 35.2116 28.1258C35.1988 27.9496 35.1511 27.7776 35.0712 27.6197C34.9913 27.4618 34.8809 27.3211 34.7461 27.2056C34.6114 27.0901 34.455 27.0021 34.286 26.9466Z" fill="#00A5C7"/>
<path d="M23.0233 38.9731H31.1493V41.661H23.0233V38.9731Z" fill="#00A5C7"/>
<path d="M33.8579 38.9731H36.5666V41.661H33.8579V38.9731Z" fill="#00A5C7"/>
<path d="M28.4407 44.3489H44.6926V47.0367H28.4407V44.3489Z" fill="#00A5C7"/>
<path d="M52.8185 41.6609H65.0074V44.3487H52.8185V41.6609Z" fill="#00A5C7"/>
<path d="M28.4407 49.7244H31.1493V52.4122H28.4407V49.7244Z" fill="#00A5C7"/>
<path d="M33.8579 49.7244H50.1098V52.4122H33.8579V49.7244Z" fill="#00A5C7"/>
<path d="M52.8185 47.0366H58.2358V49.7244H52.8185V47.0366Z" fill="#00A5C7"/>
<path d="M47.4011 41.6609H50.1098V44.3487H47.4011V41.6609Z" fill="#00A5C7"/>
<path d="M67.716 51.0684C64.5017 51.0684 61.3595 52.0142 58.6869 53.7862C56.0143 55.5583 53.9313 58.0769 52.7012 61.0237C51.4712 63.9705 51.1493 67.2131 51.7764 70.3414C52.4035 73.4697 53.9513 76.3433 56.2242 78.5986C58.497 80.854 61.3929 82.39 64.5454 83.0122C67.698 83.6345 70.9657 83.3151 73.9353 82.0945C76.905 80.8739 79.4432 78.8069 81.2289 76.1548C83.0147 73.5028 83.9679 70.3848 83.9679 67.1952C83.9632 62.9195 82.2495 58.8203 79.2027 55.7969C76.1558 52.7735 72.0248 51.073 67.716 51.0684ZM67.716 80.6343C65.0374 80.6343 62.419 79.8461 60.1918 78.3694C57.9646 76.8927 56.2287 74.7938 55.2037 72.3381C54.1786 69.8825 53.9104 67.1803 54.433 64.5734C54.9556 61.9665 56.2454 59.5719 58.1395 57.6924C60.0335 55.8129 62.4467 54.5329 65.0738 54.0144C67.701 53.4958 70.4241 53.762 72.8988 54.7792C75.3735 55.7963 77.4886 57.5188 78.9768 59.7289C80.4649 61.9389 81.2592 64.5372 81.2592 67.1952C81.2553 70.7583 79.8271 74.1743 77.2881 76.6937C74.7492 79.2132 71.3067 80.6304 67.716 80.6343Z" fill="#00A5C7"/>
<path d="M48.7554 67.1952H12.1887C11.8295 67.1952 11.485 67.0536 11.2311 66.8015C10.9771 66.5495 10.8344 66.2077 10.8344 65.8513V24.1902H67.7159V48.3805C67.7159 48.7369 67.8586 49.0788 68.1126 49.3308C68.3666 49.5828 68.7111 49.7244 69.0703 49.7244C69.4295 49.7244 69.7739 49.5828 70.0279 49.3308C70.2819 49.0788 70.4246 48.7369 70.4246 48.3805V17.4707C70.4246 16.4014 69.9965 15.3759 69.2346 14.6198C68.4726 13.8637 67.4392 13.439 66.3616 13.439H12.1887C11.1111 13.439 10.0777 13.8637 9.31575 14.6198C8.55379 15.3759 8.12573 16.4014 8.12573 17.4707V65.8513C8.12573 66.9205 8.55379 67.946 9.31575 68.7021C10.0777 69.4582 11.1111 69.883 12.1887 69.883H48.7554C49.1146 69.883 49.4591 69.7414 49.7131 69.4894C49.9671 69.2373 50.1097 68.8955 50.1097 68.5391C50.1097 68.1826 49.9671 67.8408 49.7131 67.5888C49.4591 67.3368 49.1146 67.1952 48.7554 67.1952ZM12.1887 16.1268H66.3616C66.7208 16.1268 67.0653 16.2684 67.3193 16.5204C67.5733 16.7724 67.7159 17.1143 67.7159 17.4707V21.5024H10.8344V17.4707C10.8344 17.1143 10.9771 16.7724 11.2311 16.5204C11.485 16.2684 11.8295 16.1268 12.1887 16.1268Z" fill="#00A5C7"/>
<path d="M8.12579 83.322H2.7085V72.5708H8.12579V75.2586H5.41714V80.6342H8.12579V83.322Z" fill="#00A5C7"/>
<path d="M27.0864 83.322H21.6691V80.6342H24.3777V75.2586H21.6691V72.5708H27.0864V83.322Z" fill="#00A5C7"/>
<path d="M8.12573 76.6025H10.8344V79.2904H8.12573V76.6025Z" fill="#00A5C7"/>
<path d="M13.5431 76.6025H16.2517V79.2904H13.5431V76.6025Z" fill="#00A5C7"/>
<path d="M18.9603 76.6025H21.669V79.2904H18.9603V76.6025Z" fill="#00A5C7"/>
<path d="M81.2593 2.68774H83.9679V10.7512H81.2593V2.68774Z" fill="#00A5C7"/>
<path d="M77.1963 10.7512H75.8419C75.1236 10.7512 74.4346 10.468 73.9266 9.96393C73.4187 9.45987 73.1333 8.77622 73.1333 8.06337V5.37555C73.1333 4.6627 73.4187 3.97905 73.9266 3.47499C74.4346 2.97092 75.1236 2.68774 75.8419 2.68774H77.1963C77.9146 2.68774 78.6036 2.97092 79.1116 3.47499C79.6195 3.97905 79.9049 4.6627 79.9049 5.37555V8.06337C79.9049 8.77622 79.6195 9.45987 79.1116 9.96393C78.6036 10.468 77.9146 10.7512 77.1963 10.7512ZM75.8419 5.37555V8.06337H77.1963V5.37555H75.8419Z" fill="#00A5C7"/>
<path d="M63.6531 10.7512H62.2987C61.5804 10.7512 60.8914 10.468 60.3834 9.96393C59.8755 9.45987 59.5901 8.77622 59.5901 8.06337V5.37555C59.5901 4.6627 59.8755 3.97905 60.3834 3.47499C60.8914 2.97092 61.5804 2.68774 62.2987 2.68774H63.6531C64.3714 2.68774 65.0604 2.97092 65.5684 3.47499C66.0763 3.97905 66.3617 4.6627 66.3617 5.37555V8.06337C66.3617 8.77622 66.0763 9.45987 65.5684 9.96393C65.0604 10.468 64.3714 10.7512 63.6531 10.7512ZM62.2987 5.37555V8.06337H63.6531V5.37555H62.2987Z" fill="#00A5C7"/>
<path d="M67.7161 2.68774H70.4247V10.7512H67.7161V2.68774Z" fill="#00A5C7"/>
</svg>
