<svg width="79" height="79" viewBox="0 0 79 79" fill="none" xmlns="http://www.w3.org/2000/svg">
<path d="M73.1333 25.5968C73.1333 24.627 72.748 23.6969 72.0623 23.0111C71.3765 22.3253 70.4464 21.9401 69.4766 21.9401H58.5066C58.5048 21.2286 58.4641 20.5177 58.3847 19.8107C58.3567 19.5498 58.3043 19.2951 58.2628 19.0355C58.1982 18.6064 58.1324 18.1822 58.0398 17.7569C57.9703 17.4412 57.8825 17.1316 57.796 16.8195C57.7009 16.4709 57.6034 16.1248 57.4888 15.7847C57.3743 15.4446 57.256 15.1253 57.1232 14.7998C56.9903 14.4744 56.8696 14.1904 56.7319 13.8832C56.5856 13.5602 56.4357 13.2396 56.2699 12.9252C56.1042 12.6107 55.9299 12.3157 55.7519 12.0171C55.5849 11.7368 55.4265 11.454 55.2449 11.1822C54.9267 10.7044 54.5842 10.2436 54.2271 9.79628C54.1661 9.72071 54.1149 9.63904 54.0528 9.56347C53.5944 9.00906 53.1061 8.48008 52.5901 7.97891C52.5243 7.91675 52.4548 7.85702 52.3878 7.79608C51.9213 7.35321 51.4338 6.93432 50.9251 6.5394C50.8849 6.50893 50.8507 6.47236 50.8105 6.44189L50.0963 5.89948L50.0792 5.91045C47.783 4.31567 45.1699 3.2348 42.4181 2.74155C39.6663 2.2483 36.8405 2.35426 34.1333 3.05222C31.4262 3.75018 28.9014 5.02371 26.7311 6.78599C24.5608 8.54826 22.796 10.7578 21.5571 13.264L21.5364 13.2701L21.2926 13.7821C21.2792 13.8125 21.2695 13.8442 21.2561 13.8747C21.0009 14.4329 20.773 15.0042 20.5723 15.5884C20.5455 15.664 20.515 15.7384 20.4894 15.8139C20.3041 16.371 20.1481 16.939 20.014 17.5204C19.9884 17.6264 19.9555 17.7313 19.9324 17.8373C19.8105 18.3809 19.73 18.9343 19.6593 19.4938C19.6435 19.6242 19.6142 19.7522 19.5996 19.8838C19.5315 20.5671 19.499 21.2534 19.5021 21.9401H8.53208C7.56227 21.9401 6.63218 22.3253 5.94642 23.0111C5.26066 23.6969 4.8754 24.627 4.8754 25.5968V68.2579H2.43762V71.9146C2.43762 72.8844 2.82288 73.8145 3.50864 74.5003C4.1944 75.186 5.12448 75.5713 6.09429 75.5713H71.9144C72.8842 75.5713 73.8143 75.186 74.5001 74.5003C75.1858 73.8145 75.5711 72.8844 75.5711 71.9146V68.2579H73.1333V25.5968ZM22.0264 20.2336C22.1966 18.5479 22.6194 16.8973 23.2807 15.3374C24.7076 15.0491 26.1873 15.1784 27.5426 15.7098C28.8979 16.2412 30.0712 17.1521 30.9219 18.3334L31.496 19.1366C32.4172 20.4197 32.9118 21.9598 32.9099 23.5393C32.911 25.4757 33.4731 27.3703 34.5283 28.994C35.5835 30.6177 37.0865 31.9008 38.8556 32.6883C40.0415 33.2185 41.1064 33.9856 41.9849 34.9425C42.8633 35.8994 43.5369 37.0258 43.964 38.2525C43.5898 38.3744 43.2132 38.467 42.8353 38.5548C42.7975 38.5633 42.7622 38.5755 42.7244 38.584C42.4562 38.645 42.1844 38.6901 41.9138 38.7376C41.6432 38.7852 41.3848 38.8266 41.1179 38.8595C40.9156 38.8851 40.7145 38.9095 40.5085 38.9278C40.0099 38.9717 39.509 39.0046 38.9995 39.0046C34.476 38.9984 30.1397 37.1984 26.9416 33.9994C23.7435 30.8004 21.9447 26.4635 21.9399 21.9401C21.9399 21.3648 21.9703 20.7956 22.0264 20.2336ZM39.0043 41.4423C39.6199 41.4423 40.233 41.4082 40.8437 41.3497C41.1935 41.3168 41.5335 41.2571 41.8773 41.2071C42.1211 41.1705 42.3563 41.1425 42.594 41.0962C43.0523 41.0109 43.4996 40.9012 43.9457 40.7841C44.0579 40.7537 44.1724 40.7281 44.2846 40.6964C44.7721 40.5587 45.2597 40.3978 45.7265 40.2235C45.7777 40.204 45.8301 40.1918 45.8826 40.1723L46.4542 39.9565C46.503 39.9358 46.5529 39.9212 46.6017 39.9004L46.8711 39.7993L46.865 39.7737C51.1106 37.8875 54.5479 34.5543 56.5637 30.3687L56.5893 30.3565L56.7673 29.9616C56.7794 29.936 56.7867 29.9092 56.7977 29.8836C56.8916 29.6752 56.9842 29.4655 57.0707 29.2534H65.82V63.3824H12.1887V29.2534H20.9379C22.3963 32.8511 24.894 35.9323 28.1121 38.1034C31.3301 40.2746 35.1224 41.437 39.0043 41.4423ZM54.7183 28.5672L53.0362 29.407C52.4815 29.6853 51.8664 29.8218 51.2461 29.8046C50.6257 29.7874 50.0192 29.6169 49.4807 29.3083L48.9371 28.9987C48.4338 28.7108 48.0037 28.3109 47.68 27.8298C47.3564 27.3488 47.148 26.7996 47.071 26.2249C46.994 25.6503 47.0505 25.0656 47.2361 24.5164C47.4217 23.9671 47.7314 23.468 48.1412 23.0578C49.1029 22.0942 49.7216 20.8414 49.9024 19.4921C50.0832 18.1427 49.816 16.7713 49.1419 15.5884L48.3898 14.2794C47.9244 13.469 47.7774 12.5143 47.9775 11.6015C48.1776 10.6886 48.7105 9.88301 49.4722 9.34163L50.0304 8.94305C50.4728 9.32056 50.8958 9.72005 51.2981 10.14C51.4029 10.2485 51.5016 10.3631 51.6028 10.4752C51.8831 10.7799 52.1509 11.0932 52.4061 11.415C52.5539 11.6035 52.697 11.7953 52.8351 11.9903C53.024 12.2487 53.2008 12.5132 53.3763 12.7826C53.5311 13.0263 53.681 13.2701 53.8236 13.5139C53.9662 13.7577 54.0881 14.0015 54.2137 14.2452C54.3538 14.5219 54.4928 14.7986 54.6171 15.0826C54.7256 15.3264 54.8195 15.5702 54.9145 15.8261C55.0267 16.1162 55.1412 16.4075 55.2375 16.705C55.3253 16.9792 55.396 17.2595 55.4703 17.5387C55.5447 17.8178 55.6276 18.0994 55.6885 18.3919C55.7617 18.7381 55.8104 19.0903 55.8616 19.4426C55.8957 19.6742 55.9433 19.9009 55.9677 20.1361C56.0327 20.7353 56.0664 21.3374 56.0688 21.9401C56.0688 22.5178 56.0383 23.0883 55.9823 23.6465C55.81 25.3408 55.3839 26.9996 54.7183 28.5672ZM39.0043 4.87561C42.1711 4.8768 45.2741 5.76614 47.9608 7.4426C46.7434 8.34444 45.8994 9.66186 45.5891 11.1448C45.2788 12.6277 45.5238 14.173 46.2775 15.4873L47.0259 16.7964C47.4343 17.515 47.5959 18.3477 47.4858 19.1669C47.3758 19.9861 47.0001 20.7466 46.4164 21.3319C45.7417 22.0069 45.2317 22.8284 44.9261 23.7325C44.6204 24.6366 44.5272 25.599 44.6539 26.545C44.7805 27.491 45.1235 28.395 45.6562 29.1869C46.1889 29.9788 46.897 30.6372 47.7255 31.111L48.2691 31.4218C49.6049 32.1915 51.1812 32.4308 52.6852 32.0922C51.0023 34.3559 48.7866 36.1692 46.2348 37.3713C45.692 35.8474 44.8459 34.4493 43.7478 33.2615C42.6496 32.0736 41.3221 31.1207 39.8454 30.4601C38.5072 29.8643 37.3703 28.8936 36.5722 27.6654C35.774 26.4372 35.3487 25.0041 35.3477 23.5393C35.3515 21.4521 34.6991 19.4164 33.4828 17.7203L32.9099 16.9158C31.9657 15.6104 30.7198 14.5525 29.2786 13.8324C27.8373 13.1123 26.2433 12.7513 24.6324 12.7801C26.1701 10.3604 28.2932 8.36757 30.8053 6.98593C33.3174 5.60429 36.1374 4.87847 39.0043 4.87561ZM7.31319 25.5968C7.31319 25.2735 7.4416 24.9635 7.67019 24.7349C7.89878 24.5063 8.20881 24.3779 8.53208 24.3779H19.6715C19.7764 25.1998 19.9343 26.0141 20.1445 26.8157H9.75097V65.8202H68.2577V26.8157H57.8642C57.9154 26.6194 57.9715 26.4244 58.0166 26.2257C58.0337 26.1501 58.0581 26.077 58.0751 26.0014C58.1885 25.4688 58.2689 24.9252 58.3372 24.3779H69.4766C69.7999 24.3779 70.1099 24.5063 70.3385 24.7349C70.5671 24.9635 70.6955 25.2735 70.6955 25.5968V68.2579H7.31319V25.5968ZM73.1333 71.9146C73.1333 72.2379 73.0049 72.5479 72.7763 72.7765C72.5477 73.0051 72.2377 73.1335 71.9144 73.1335H6.09429C5.77102 73.1335 5.461 73.0051 5.23241 72.7765C5.00382 72.5479 4.8754 72.2379 4.8754 71.9146V70.6957H73.1333V71.9146Z" fill="#00A5C7"/>
<path d="M34.1288 60.9445H43.8799V56.0689H48.9676L39.0044 44.4443L29.0411 56.0689H34.1288V60.9445ZM39.0044 48.1912L43.6678 53.6311H41.4421V58.5067H36.5666V53.6311H34.3409L39.0044 48.1912Z" fill="#00A5C7"/>
</svg>
