<svg width="79" height="80" viewBox="0 0 79 80" fill="none" xmlns="http://www.w3.org/2000/svg">
<path d="M75.8085 17.6897H73.5296V1.9379C73.5296 1.58976 73.3924 1.25588 73.1482 1.00971C72.904 0.763541 72.5727 0.625244 72.2273 0.625244H21.4402V3.25055H70.9251V8.50115H8.4179V3.25055H18.8358V0.625244H7.11566C6.77029 0.625244 6.43906 0.763541 6.19484 1.00971C5.95063 1.25588 5.81343 1.58976 5.81343 1.9379V17.6897H3.53452C2.7577 17.6906 2.01297 18.0021 1.46368 18.5558C0.914386 19.1095 0.605397 19.8602 0.604492 20.6432V63.3044C0.605397 64.0874 0.914386 64.8381 1.46368 65.3918C2.01297 65.9455 2.7577 66.2569 3.53452 66.2578H30.5559V66.778C30.5569 67.8802 30.2133 68.9547 29.574 69.8489C28.9346 70.7431 28.032 71.4114 26.9943 71.759L25.859 72.1405C24.9511 72.4447 24.1612 73.0295 23.6018 73.8119C23.0423 74.5943 22.7416 75.5345 22.7425 76.499V78.0717C22.7425 78.4198 22.8797 78.7537 23.1239 78.9999C23.3681 79.2461 23.6993 79.3843 24.0447 79.3843H55.2983C55.6437 79.3843 55.9749 79.2461 56.2191 78.9999C56.4633 78.7537 56.6005 78.4198 56.6005 78.0717V76.499C56.6014 75.5345 56.3007 74.5943 55.7412 73.8119C55.1818 73.0295 54.392 72.4447 53.484 72.1405L52.3489 71.759C51.3112 71.4115 50.4085 70.7431 49.7691 69.8489C49.1297 68.9548 48.7861 67.8802 48.7871 66.778V66.2578H59.205V63.6325H3.53452C3.44817 63.6325 3.36537 63.598 3.30431 63.5364C3.24326 63.4749 3.20896 63.3914 3.20896 63.3044V54.444H5.81343V57.0693C5.81343 57.4174 5.95063 57.7513 6.19484 57.9975C6.43906 58.2436 6.77029 58.3819 7.11566 58.3819H72.2273C72.5727 58.3819 72.904 58.2436 73.1482 57.9975C73.3924 57.7513 73.5296 57.4174 73.5296 57.0693V54.444H76.1341V63.3044C76.1341 63.3914 76.0998 63.4749 76.0387 63.5364C75.9776 63.598 75.8948 63.6325 75.8085 63.6325H61.8095V66.2578H75.8085C76.5853 66.2569 77.33 65.9455 77.8793 65.3918C78.4286 64.8381 78.7376 64.0874 78.7385 63.3044V20.6432C78.7376 19.8602 78.4286 19.1095 77.8793 18.5558C77.33 18.0021 76.5853 17.6906 75.8085 17.6897ZM46.1827 66.2578V66.778C46.1811 68.4314 46.6965 70.0432 47.6556 71.3845C48.6147 72.7258 49.9687 73.7284 51.5253 74.2497L52.6603 74.6311C53.0495 74.7614 53.388 75.012 53.6278 75.3474C53.8676 75.6827 53.9964 76.0856 53.9961 76.499V76.759H25.3469V76.499C25.3466 76.0857 25.4754 75.6827 25.7152 75.3474C25.955 75.0121 26.2934 74.7615 26.6825 74.6311L27.8179 74.2497C29.3745 73.7283 30.7284 72.7257 31.6875 71.3844C32.6465 70.0431 33.1619 68.4313 33.1603 66.778V66.2578H46.1827ZM3.20896 51.8187V20.6432C3.20896 20.5561 3.24326 20.4727 3.30431 20.4111C3.36537 20.3496 3.44817 20.315 3.53452 20.315H5.81343V51.8187H3.20896ZM8.4179 55.7566V11.1265H70.9251V55.7566H8.4179ZM73.5296 51.8187V20.315H75.8085C75.8948 20.315 75.9776 20.3496 76.0387 20.4111C76.0998 20.4727 76.1341 20.5561 76.1341 20.6432V51.8187H73.5296Z" fill="#00A5C7"/>
<path d="M65.7161 4.56323H68.3205V7.18853H65.7161V4.56323Z" fill="#00A5C7"/>
<path d="M21.4402 4.56323H24.0447V7.18853H21.4402V4.56323Z" fill="#00A5C7"/>
<path d="M11.0225 4.56323H13.6269V7.18853H11.0225V4.56323Z" fill="#00A5C7"/>
<path d="M16.2312 4.56323H18.8357V7.18853H16.2312V4.56323Z" fill="#00A5C7"/>
<path d="M25.3469 34.7542H31.8581V37.3795H25.3469V34.7542Z" fill="#00A5C7"/>
<path d="M34.4626 34.7542H43.5783V37.3795H34.4626V34.7542Z" fill="#00A5C7"/>
<path d="M25.3469 40.0049H29.2536V42.6302H25.3469V40.0049Z" fill="#00A5C7"/>
<path d="M31.8582 40.0049H43.5783V42.6302H31.8582V40.0049Z" fill="#00A5C7"/>
<path d="M25.3469 45.2554H40.9737V47.8807H25.3469V45.2554Z" fill="#00A5C7"/>
<path d="M25.3469 17.6897H27.9514V22.9403H25.3469V17.6897Z" fill="#00A5C7"/>
<path d="M61.8094 26.8782C61.8094 25.8598 61.574 24.8554 61.1219 23.9446C60.6698 23.0338 60.0135 22.2416 59.205 21.6309V18.346C59.2036 17.1279 58.7229 15.9602 57.8685 15.0989C57.014 14.2376 55.8555 13.7531 54.6471 13.7517H24.6958C23.4874 13.7531 22.3289 14.2376 21.4744 15.0989C20.62 15.9602 20.1393 17.1279 20.1379 18.346V22.2839C20.1393 23.502 20.62 24.6698 21.4744 25.5311C22.3289 26.3924 23.4874 26.8768 24.6958 26.8782H48.7871C48.786 27.7818 48.9712 28.6758 49.3308 29.5035H21.4402C21.0948 29.5035 20.7636 29.6418 20.5194 29.888C20.2751 30.1342 20.1379 30.468 20.1379 30.8162V51.8186C20.1379 52.1668 20.2751 52.5006 20.5194 52.7468C20.7636 52.993 21.0948 53.1313 21.4402 53.1313H57.9027C58.2481 53.1313 58.5793 52.993 58.8235 52.7468C59.0678 52.5006 59.205 52.1668 59.205 51.8186V32.1256C59.4648 31.9283 59.7096 31.7119 59.9375 31.4779L65.0453 34.5671L66.3853 32.3159L61.3589 29.2758C61.6572 28.5122 61.81 27.6989 61.8094 26.8782ZM59.205 26.8782C59.205 27.6571 58.9758 28.4184 58.5466 29.066C58.1173 29.7136 57.5071 30.2184 56.7933 30.5164C56.0794 30.8145 55.2939 30.8925 54.5361 30.7405C53.7783 30.5886 53.0822 30.2135 52.5358 29.6628C51.9894 29.1121 51.6174 28.4104 51.4666 27.6465C51.3159 26.8826 51.3932 26.0908 51.6889 25.3712C51.9846 24.6517 52.4854 24.0366 53.1278 23.6039C53.7703 23.1712 54.5256 22.9403 55.2983 22.9403C56.334 22.9415 57.327 23.3568 58.0594 24.095C58.7918 24.8333 59.2038 25.8342 59.205 26.8782ZM24.6958 24.2529C24.1779 24.2524 23.6814 24.0447 23.3152 23.6756C22.9489 23.3065 22.743 22.806 22.7424 22.2839V18.346C22.743 17.824 22.9489 17.3235 23.3152 16.9543C23.6814 16.5852 24.1779 16.3776 24.6958 16.377H54.6471C55.165 16.3776 55.6615 16.5852 56.0278 16.9543C56.394 17.3235 56.5999 17.824 56.6005 18.346V20.4462C55.1396 20.1466 53.6209 20.3611 52.2979 21.0538C50.9748 21.7466 49.9276 22.8758 49.3308 24.2529H24.6958ZM56.6005 50.506H22.7424V32.1288H51.3916V32.1256C52.1274 32.6829 52.9721 33.0767 53.87 33.2808C54.7679 33.4849 55.6986 33.4947 56.6005 33.3096V50.506Z" fill="#00A5C7"/>
</svg>
