<svg xmlns="http://www.w3.org/2000/svg" width="2601" height="860" viewBox="0 0 2601 860" fill="none"><path d="M838 286V526.013H970.799" stroke="#396CAA" stroke-width="22" stroke-linecap="round" stroke-linejoin="round"></path><path d="M1054.86 328.642V529.668" stroke="#396CAA" stroke-width="22" stroke-linecap="round" stroke-linejoin="round"></path><path d="M1551.95 306.712V528.45H1655.51" stroke="#396CAA" stroke-width="22" stroke-linecap="round" stroke-linejoin="round"></path><path d="M1327.77 452.913L1327.77 528.45" stroke="#396CAA" stroke-width="22" stroke-linecap="round" stroke-linejoin="round"></path><path d="M1522.71 404.179L1627.48 404.179" stroke="#396CAA" stroke-width="22" stroke-linecap="round" stroke-linejoin="round"></path><path d="M1220.56 444.384H1123.09V328.642H1257.11V612.515H1123.09" stroke="#396CAA" stroke-width="22" stroke-linecap="round" stroke-linejoin="round"></path><path d="M2414.53 477.841H2512V406.615H2377.98V534.541H2512" stroke="#5793CE" stroke-width="22" stroke-linecap="round" stroke-linejoin="round"></path><path d="M1915.01 316.459L1734.7 316.459V528.45H1915.01" stroke="#5793CE" stroke-width="22" stroke-linecap="round" stroke-linejoin="round"></path><path d="M2319.5 404.179L2204.98 404.179V528.449" stroke="#5793CE" stroke-width="22" stroke-linecap="round" stroke-linejoin="round"></path><path d="M1983.24 404.179H2134.31V528.449H1983.24V404.179Z" stroke="#5793CE" stroke-width="22" stroke-linecap="round" stroke-linejoin="round"></path><path d="M1454.48 528.45V400.524H1327.77V306.712" stroke="#396CAA" stroke-width="22" stroke-linecap="round" stroke-linejoin="round"></path><path fill-rule="evenodd" clip-rule="evenodd" d="M680.246 255.367L373.037 78L72.4975 251.517L352.037 414.003V239H394.037V414.767L680.246 255.367ZM683.074 301.867L394.037 462.841V781.876L683.074 615V301.867ZM63 615V294.576L352.037 462.583V781.876L63 615Z" fill="#89BBEC"></path><path d="M373.5 67L691.764 248.5V611.5L373.5 793L55.2357 611.5V248.5L373.5 67Z" fill="#2861AE"></path><path opacity="0.5" d="M373.5 67L691.764 248.5V611.5L373.5 793L55.2357 611.5V248.5L373.5 67Z" fill="url(#paint0_radial)"></path><rect x="350.887" y="221" width="42" height="572" fill="white"></rect><rect x="42.8516" y="265.936" width="42" height="390.908" transform="rotate(-59.832 42.8516 265.936)" fill="white"></rect><rect x="370.963" y="457.626" width="42" height="381.866" transform="rotate(-119.115 370.963 457.626)" fill="white"></rect><path d="M373.037 164L608.596 300V572L373.037 708L137.478 572V300L373.037 164Z" fill="white"></path><path d="M373 214L565.258 323.5V542.5L373 652L180.742 542.5V323.5L373 214Z" fill="white"></path><path d="M496.5 326.24V309.499L481.429 316.788L373.001 369.222L264.573 316.788L249.502 309.499V326.24V509.136V515.25L254.82 518.268L367.819 582.393L373.001 585.333L378.183 582.393L491.183 518.268L496.5 515.25V509.136V326.24Z" fill="white" stroke="#2E6BB2" stroke-width="21"></path><path fill-rule="evenodd" clip-rule="evenodd" d="M373 557.089H373L471.697 500.771V352.143L373 400.758L373 400.758V557.089Z" fill="#89BBEC"></path><defs><radialGradient id="paint0_radial" cx="0" cy="0" r="1" gradientUnits="userSpaceOnUse" gradientTransform="translate(374 26.5) rotate(90.0374) scale(766.5 776.002)"><stop stop-color="#5793CE"></stop><stop offset="0.554002" stop-color="#BCDEFF" stop-opacity="0.84"></stop><stop offset="1" stop-color="#07539E"></stop></radialGradient></defs></svg>