<svg width="74" height="73" viewBox="0 0 74 73" fill="none" xmlns="http://www.w3.org/2000/svg">
<g clip-path="url(#clip0_18_76)">
<path d="M69.3265 3.07251H15.0855C14.484 3.07251 13.9963 3.55583 13.9963 4.15185C13.9963 4.74787 14.484 5.23119 15.0855 5.23119H69.3263C70.3394 5.23119 71.1632 6.04779 71.1632 7.05147V13.0455H27.6602C27.0587 13.0455 26.5709 13.5288 26.5709 14.1248C26.5709 14.7208 27.0587 15.2041 27.6602 15.2041H71.1633V43.4107H2.47385C2.37129 43.4107 2.27259 43.4256 2.17848 43.452V15.1631C2.27259 15.1894 2.37129 15.2044 2.47385 15.2044H23.3134C23.9149 15.2044 24.4026 14.7211 24.4026 14.1251C24.4026 13.5291 23.9149 13.0457 23.3134 13.0457H2.47385C2.37129 13.0457 2.27259 13.0606 2.17848 13.087V7.05161C2.17848 6.04779 3.00257 5.23133 4.01546 5.23133H9.83969C10.4412 5.23133 10.9289 4.74801 10.9289 4.15199C10.9289 3.55597 10.4412 3.07265 9.83969 3.07265H4.01546C1.80131 3.07251 0 4.85745 0 7.05161V50.8443C0 53.0383 1.80131 54.8233 4.01546 54.8233H28.751L25.8685 68.2997C25.8004 68.6182 25.8808 68.95 26.0878 69.203C26.2946 69.4558 26.6055 69.6028 26.9341 69.6028H47.6832C48.0117 69.6028 48.3227 69.4559 48.5295 69.203C48.7363 68.95 48.8169 68.6182 48.7488 68.2997L45.8664 54.8233H69.3265C71.5405 54.8233 73.3418 53.0383 73.3418 50.8443V7.05161C73.3418 4.85745 71.5405 3.07251 69.3265 3.07251ZM46.339 67.444H28.2783L30.9779 54.8231H43.6394L46.339 67.444ZM71.1633 50.8443C71.1633 51.848 70.3392 52.6646 69.3265 52.6646H44.5221H30.0954H4.01546C3.00243 52.6646 2.17848 51.848 2.17848 50.8443V45.5284C2.27259 45.5546 2.37129 45.5697 2.47385 45.5697H71.1633V50.8443Z" fill="#00A5C7"/>
<path d="M63.5233 25.462C63.3232 24.3183 62.6764 23.3329 61.7023 22.6877C60.7284 22.0425 59.5624 21.8269 58.419 22.0809L31.1556 28.1362C30.6567 27.377 30.0125 26.7104 29.2424 26.173C27.651 25.0623 25.7182 24.6327 23.8005 24.9618C20.1092 25.5965 14.8891 32.3562 14.3061 33.125C14.3033 33.1287 14.3009 33.1328 14.2982 33.1364C14.2818 33.1585 14.2664 33.1812 14.2519 33.2046C14.247 33.2124 14.2422 33.2201 14.2376 33.2279C14.224 33.2509 14.2112 33.2746 14.1993 33.2989C14.195 33.3077 14.1906 33.3165 14.1864 33.3254C14.1758 33.3484 14.1664 33.3718 14.1574 33.3957C14.1532 33.4066 14.1491 33.4175 14.1453 33.4286C14.138 33.45 14.1319 33.4719 14.1259 33.4939C14.1221 33.508 14.1181 33.5222 14.115 33.5363C14.1107 33.5557 14.1071 33.5752 14.1038 33.595C14.1009 33.6123 14.0979 33.6295 14.0959 33.6469C14.0952 33.6536 14.0936 33.66 14.0929 33.6667C14.0918 33.6789 14.0919 33.6908 14.0912 33.7028C14.09 33.7206 14.0889 33.738 14.0886 33.7559C14.088 33.7768 14.0886 33.7971 14.0895 33.8174C14.09 33.8327 14.0906 33.8481 14.0919 33.8634C14.0938 33.8862 14.0968 33.9088 14.1002 33.9314C14.1015 33.9403 14.1019 33.9493 14.1034 33.9582C14.1041 33.9623 14.1054 33.9663 14.1061 33.9703C14.1105 33.9944 14.1164 34.0182 14.1226 34.0418C14.1254 34.0532 14.1281 34.0645 14.1314 34.0757C14.1385 34.0996 14.1468 34.1229 14.1554 34.1461C14.1592 34.1569 14.163 34.1677 14.1673 34.1784C14.1766 34.2011 14.1872 34.2229 14.1979 34.2449C14.2029 34.2554 14.2076 34.2661 14.2131 34.2764C14.2244 34.2977 14.237 34.318 14.2496 34.3385C14.2561 34.3487 14.2617 34.3592 14.2684 34.3691C14.2826 34.3903 14.298 34.4104 14.3136 34.4306C14.32 34.4388 14.3255 34.4473 14.3323 34.4553C14.378 34.5109 14.4292 34.5619 14.4855 34.6077C14.4904 34.6117 14.4957 34.6153 14.5006 34.619C14.5244 34.6377 14.5487 34.6557 14.5739 34.6725C14.5751 34.6732 14.5759 34.674 14.5771 34.6747C15.3354 35.1701 21.7031 39.2514 25.5421 39.2514C25.8044 39.2514 26.0555 39.2323 26.2917 39.1917C29.2457 38.6838 31.4769 36.4693 32.1346 33.7483L59.8668 30.3493C61.0295 30.2068 62.0543 29.6146 62.7519 28.682C63.4495 27.7495 63.7234 26.6058 63.5233 25.462ZM24.1724 27.0888C25.5169 26.8578 26.872 27.1593 27.9876 27.938C28.0008 27.9472 28.0132 27.9573 28.0266 27.9665C26.3189 32.0353 20.5486 32.7068 17.3906 32.7576C19.5087 30.2694 22.4394 27.3868 24.1724 27.0888ZM25.9191 37.0649C24.4877 37.3106 21.6907 36.171 19.1607 34.8456C22.6463 34.5703 27.414 33.4756 29.5776 29.7367C29.8174 30.1939 29.9882 30.6894 30.0796 31.2115C30.5611 33.9619 28.6948 36.5877 25.9191 37.0649ZM61.0016 27.3964C60.6624 27.8498 60.1642 28.1375 59.5989 28.2069L32.3136 31.5511C32.2961 31.3159 32.2675 31.0796 32.226 30.8425C32.1846 30.6064 32.1318 30.3738 32.0685 30.1457L58.8951 24.1872C59.4507 24.0637 60.0178 24.1685 60.4913 24.4822C60.9648 24.7959 61.2792 25.2748 61.3764 25.8309C61.474 26.3871 61.3409 26.9431 61.0016 27.3964Z" fill="#00A5C7"/>
</g>
<defs>
<clipPath id="clip0_18_76">
<rect width="73.3418" height="72.6751" fill="white"/>
</clipPath>
</defs>
</svg>
