<svg width="40" height="40" viewBox="0 0 52 52" fill="none" xmlns="http://www.w3.org/2000/svg">
<circle cx="25.816" cy="25.733" r="24.9024" fill="white" stroke="#1A2B39"/>
<g clip-path="url(#clip0)">
<path d="M27.1631 21.0084V18.9108C27.1631 18.5959 27.1776 18.352 27.207 18.1797C27.2364 18.0072 27.3031 17.8375 27.4067 17.67C27.5101 17.5025 27.6776 17.3869 27.9089 17.3229C28.1405 17.2587 28.4482 17.2268 28.8324 17.2268H30.9299V13.0317H27.5767C25.6365 13.0317 24.243 13.4921 23.396 14.4127C22.5492 15.3336 22.1258 16.69 22.1258 18.4824V21.0083H19.6143V25.2037H22.1256V37.3756H27.1631V25.2037H30.516L30.9592 21.0084H27.1631Z" fill="#1A2B39"/>
</g>
<defs>
<clipPath id="clip0">
<rect width="24.344" height="24.344" fill="white" transform="translate(13.1147 13.0317)"/>
</clipPath>
</defs>
</svg>
