<svg width="118" height="118" viewBox="0 0 118 118" fill="none" xmlns="http://www.w3.org/2000/svg">
<path d="M112.79 80.7021L106.244 47.9732C105.822 45.8855 104.691 44.0078 103.044 42.6574C101.397 41.3071 99.3339 40.5671 97.2039 40.5625H60.8438V14.75C60.8438 11.816 59.6782 9.00225 57.6036 6.92763C55.529 4.85301 52.7152 3.6875 49.7812 3.6875C46.8473 3.6875 44.0335 4.85301 41.9589 6.92763C39.8843 9.00225 38.7188 11.816 38.7188 14.75C38.7188 16.706 37.9417 18.5818 36.5587 19.9649C35.1756 21.348 33.2997 22.125 31.3438 22.125C29.3878 22.125 27.5119 21.348 26.1288 19.9649C24.7458 18.5818 23.9688 16.706 23.9688 14.75V5.53125C23.9688 5.04226 23.7745 4.57329 23.4287 4.22752C23.083 3.88175 22.614 3.6875 22.125 3.6875C21.636 3.6875 21.167 3.88175 20.8213 4.22752C20.4755 4.57329 20.2812 5.04226 20.2812 5.53125V14.75C20.2812 17.684 21.4468 20.4977 23.5214 22.5724C25.596 24.647 28.4098 25.8125 31.3438 25.8125C34.2777 25.8125 37.0915 24.647 39.1661 22.5724C41.2407 20.4977 42.4062 17.684 42.4062 14.75C42.4062 12.794 43.1833 10.9182 44.5663 9.53509C45.9494 8.15201 47.8253 7.375 49.7812 7.375C51.7372 7.375 53.6131 8.15201 54.9962 9.53509C56.3792 10.9182 57.1562 12.794 57.1562 14.75V40.5625H20.7961C18.6662 40.5672 16.6033 41.3073 14.9561 42.6576C13.3089 44.0079 12.1786 45.8856 11.7562 47.9732L5.2109 80.7021C4.19903 85.7668 3.68876 90.919 3.6875 96.0838V96.1223C3.68817 100.441 5.21034 104.621 7.98666 107.929C10.7606 111.24 14.6424 113.433 18.9109 114.099C22.5925 114.674 26.3618 114.092 29.699 112.434C33.0361 110.776 35.7768 108.124 37.5431 104.843L43.5789 93.6332C44.1138 92.638 44.9086 91.8065 45.8786 91.2272C46.8487 90.648 47.9577 90.3426 49.0875 90.3438H68.9125C70.0422 90.3427 71.1511 90.6481 72.1211 91.2273C73.0911 91.8066 73.8858 92.6381 74.4207 93.6332L80.4566 104.843C82.1863 108.042 84.8412 110.643 88.0739 112.307C91.3065 113.972 94.9663 114.621 98.5742 114.171C107.546 113.046 114.312 105.281 114.312 96.1092V96.0838C114.311 90.919 113.801 85.7669 112.79 80.7021ZM46.0938 44.25H71.9062V51.625C71.9046 53.0915 71.3213 54.4974 70.2844 55.5344C69.2474 56.5713 67.8415 57.1546 66.375 57.1562H51.625C50.1585 57.1546 48.7526 56.5713 47.7156 55.5344C46.6787 54.4974 46.0954 53.0915 46.0938 51.625V44.25ZM29.0345 108.599C26.1597 110.308 22.78 110.964 19.4746 110.454C12.5762 109.392 7.375 103.23 7.375 96.1223V96.0838C7.37631 91.162 7.86265 86.2524 8.82695 81.426L9.12241 79.9489L33.5309 104.356C32.3589 106.081 30.8243 107.529 29.0345 108.599ZM77.668 91.8851C76.8178 90.3033 75.5545 88.9817 74.0127 88.0609C72.4709 87.1401 70.7083 86.6547 68.9125 86.6562H49.0875C47.2919 86.6549 45.5295 87.1404 43.9879 88.0612C42.4464 88.982 41.1833 90.3035 40.3332 91.8851L35.4127 101.024L9.99197 75.6032L15.3723 48.6964C15.6257 47.4439 16.3039 46.3172 17.2921 45.5071C18.2804 44.6969 19.5182 44.2528 20.7961 44.25H42.4062V51.625C42.409 54.0691 43.3811 56.4124 45.1094 58.1406C46.8376 59.8689 49.1809 60.841 51.625 60.8438H66.375C68.8191 60.841 71.1624 59.8689 72.8906 58.1406C74.6189 56.4124 75.591 54.0691 75.5938 51.625V44.25H97.2039C98.4818 44.2528 99.7196 44.6969 100.708 45.5071C101.696 46.3172 102.374 47.4439 102.628 48.6964L108.009 75.6023L82.5882 101.023L77.668 91.8851ZM110.625 96.1092C110.625 103.426 105.247 109.618 98.1149 110.512C95.4938 110.845 92.8316 110.447 90.4231 109.36C88.0147 108.274 85.9539 106.542 84.4691 104.356L108.878 79.9473L109.173 81.4246C110.137 86.251 110.624 91.1607 110.625 96.0824V96.1092Z" fill="black"/>
<path d="M38.7188 62.6875H33.1875V57.1562C33.1875 56.6673 32.9932 56.1983 32.6475 55.8525C32.3017 55.5068 31.8327 55.3125 31.3438 55.3125H23.9688C23.4798 55.3125 23.0108 55.5068 22.665 55.8525C22.3193 56.1983 22.125 56.6673 22.125 57.1562V62.6875H16.5938C16.1048 62.6875 15.6358 62.8818 15.29 63.2275C14.9443 63.5733 14.75 64.0423 14.75 64.5312V71.9062C14.75 72.3952 14.9443 72.8642 15.29 73.21C15.6358 73.5557 16.1048 73.75 16.5938 73.75H22.125V79.2812C22.125 79.7702 22.3193 80.2392 22.665 80.585C23.0108 80.9307 23.4798 81.125 23.9688 81.125H31.3438C31.8327 81.125 32.3017 80.9307 32.6475 80.585C32.9932 80.2392 33.1875 79.7702 33.1875 79.2812V73.75H38.7188C39.2077 73.75 39.6767 73.5557 40.0225 73.21C40.3682 72.8642 40.5625 72.3952 40.5625 71.9062V64.5312C40.5625 64.0423 40.3682 63.5733 40.0225 63.2275C39.6767 62.8818 39.2077 62.6875 38.7188 62.6875ZM36.875 70.0625H31.3438C30.8548 70.0625 30.3858 70.2568 30.04 70.6025C29.6943 70.9483 29.5 71.4173 29.5 71.9062V77.4375H25.8125V71.9062C25.8125 71.4173 25.6182 70.9483 25.2725 70.6025C24.9267 70.2568 24.4577 70.0625 23.9688 70.0625H18.4375V66.375H23.9688C24.4577 66.375 24.9267 66.1807 25.2725 65.835C25.6182 65.4892 25.8125 65.0202 25.8125 64.5312V59H29.5V64.5312C29.5 65.0202 29.6943 65.4892 30.04 65.835C30.3858 66.1807 30.8548 66.375 31.3438 66.375H36.875V70.0625Z" fill="black"/>
<path d="M90.3437 81.125C92.8964 81.125 95.3917 80.3681 97.5141 78.9499C99.6365 77.5318 101.291 75.5161 102.268 73.1578C103.244 70.7995 103.5 68.2044 103.002 65.7009C102.504 63.1973 101.275 60.8976 99.4698 59.0927C97.6649 57.2877 95.3652 56.0585 92.8616 55.5605C90.3581 55.0625 87.7631 55.3181 85.4047 56.2949C83.0464 57.2718 81.0308 58.926 79.6126 61.0484C78.1944 63.1708 77.4375 65.6661 77.4375 68.2188C77.4414 71.6405 78.8024 74.921 81.222 77.3405C83.6415 79.7601 86.922 81.1211 90.3437 81.125ZM90.3437 59C92.167 59 93.9494 59.5407 95.4654 60.5536C96.9814 61.5666 98.163 63.0064 98.8608 64.6909C99.5585 66.3754 99.7411 68.229 99.3854 70.0172C99.0297 71.8055 98.1517 73.4481 96.8624 74.7374C95.5731 76.0267 93.9305 76.9047 92.1422 77.2604C90.354 77.6161 88.5004 77.4335 86.8159 76.7358C85.1314 76.038 83.6916 74.8564 82.6786 73.3404C81.6657 71.8244 81.125 70.0421 81.125 68.2188C81.1277 65.7746 82.0999 63.4314 83.8281 61.7031C85.5564 59.9749 87.8996 59.0028 90.3437 59Z" fill="black"/>
<path d="M51.625 82.9688C50.531 82.9688 49.4616 82.6444 48.552 82.0366C47.6424 81.4288 46.9334 80.5649 46.5148 79.5542C46.0961 78.5435 45.9866 77.4314 46.2 76.3584C46.4135 75.2855 46.9403 74.2999 47.7138 73.5263C48.4874 72.7528 49.4729 72.226 50.5459 72.0125C51.6189 71.7991 52.731 71.9086 53.7417 72.3273C54.7524 72.7459 55.6163 73.4549 56.2241 74.3645C56.8318 75.2741 57.1562 76.3435 57.1562 77.4375C57.1546 78.904 56.5713 80.3099 55.5344 81.3469C54.4974 82.3838 53.0915 82.9671 51.625 82.9688ZM51.625 75.5938C51.2603 75.5938 50.9039 75.7019 50.6007 75.9045C50.2975 76.1071 50.0611 76.395 49.9216 76.7319C49.782 77.0688 49.7455 77.4396 49.8167 77.7972C49.8878 78.1549 50.0634 78.4834 50.3213 78.7412C50.5791 78.9991 50.9076 79.1747 51.2653 79.2458C51.623 79.317 51.9937 79.2805 52.3306 79.1409C52.6675 79.0014 52.9554 78.765 53.158 78.4618C53.3606 78.1586 53.4688 77.8022 53.4688 77.4375C53.4682 76.9487 53.2738 76.48 52.9281 76.1344C52.5825 75.7887 52.1138 75.5943 51.625 75.5938Z" fill="black"/>
<path d="M66.375 82.9688C65.281 82.9688 64.2116 82.6444 63.302 82.0366C62.3924 81.4288 61.6834 80.5649 61.2648 79.5542C60.8461 78.5435 60.7366 77.4314 60.95 76.3584C61.1635 75.2855 61.6903 74.2999 62.4638 73.5263C63.2374 72.7528 64.223 72.226 65.2959 72.0125C66.3689 71.7991 67.481 71.9086 68.4917 72.3273C69.5024 72.7459 70.3663 73.4549 70.9741 74.3645C71.5819 75.2741 71.9063 76.3435 71.9063 77.4375C71.9046 78.904 71.3213 80.3099 70.2844 81.3469C69.2474 82.3838 67.8415 82.9671 66.375 82.9688ZM66.375 75.5938C66.0103 75.5938 65.6539 75.7019 65.3507 75.9045C65.0475 76.1071 64.8112 76.395 64.6716 76.7319C64.5321 77.0688 64.4955 77.4396 64.5667 77.7972C64.6378 78.1549 64.8134 78.4834 65.0713 78.7412C65.3291 78.9991 65.6577 79.1747 66.0153 79.2458C66.373 79.317 66.7437 79.2805 67.0806 79.1409C67.4175 79.0014 67.7054 78.765 67.908 78.4618C68.1106 78.1586 68.2188 77.8022 68.2188 77.4375C68.2182 76.9487 68.0238 76.48 67.6781 76.1344C67.3325 75.7887 66.8638 75.5943 66.375 75.5938Z" fill="black"/>
</svg>
