<svg width="40" height="40" viewBox="0 0 51 52" fill="none" xmlns="http://www.w3.org/2000/svg">
<circle cx="25.515" cy="25.733" r="24.9024" fill="white" stroke="#1A2B39"/>
<g clip-path="url(#clip0)">
<path d="M26.9701 24.5688V27.4795H33.8394C33.1408 31.5545 29.8808 34.4652 25.8059 34.4652C21.0323 34.4652 17.0738 30.5066 17.0738 25.7331C17.0738 20.9596 21.0323 17.001 25.8059 17.001C28.2508 17.001 30.3465 18.0489 31.8601 19.6789L33.9558 17.5832C31.8601 15.4875 29.0658 14.0903 25.8059 14.0903C19.4023 14.0903 14.1631 19.3296 14.1631 25.7331C14.1631 32.1366 19.4023 37.3759 25.8059 37.3759C32.2094 37.3759 36.8665 32.1366 36.8665 25.7331V24.5688H26.9701Z" fill="#1A2B39"/>
</g>
<defs>
<clipPath id="clip0">
<rect width="23.2856" height="23.2856" fill="white" transform="translate(13.8721 14.0903)"/>
</clipPath>
</defs>
</svg>
