<svg width="40" height="40" viewBox="0 0 51 52" fill="none" xmlns="http://www.w3.org/2000/svg">
<circle cx="25.4906" cy="25.733" r="24.9024" fill="white" stroke="#00A5C7"/>
<g clip-path="url(#clip0)">
<path d="M31.3155 13.0317H19.6655C15.8739 13.0317 12.7893 16.1163 12.7893 19.9079V31.5581C12.7893 35.3495 15.8739 38.4341 19.6655 38.4341H31.3157C35.1071 38.4341 38.1917 35.3495 38.1917 31.5581V19.9079C38.1917 16.1163 35.1071 13.0317 31.3155 13.0317V13.0317ZM36.7025 31.5581C36.7025 34.5284 34.2859 36.9449 31.3155 36.9449H19.6655C16.6951 36.9449 14.2785 34.5284 14.2785 31.5581V19.9079C14.2785 16.9375 16.6951 14.5209 19.6655 14.5209H31.3157C34.2859 14.5209 36.7025 16.9375 36.7025 19.9079V31.5581Z" fill="#00A5C7"/>
<path d="M25.4904 18.7871C21.6605 18.7871 18.5447 21.9029 18.5447 25.7329C18.5447 29.5628 21.6605 32.6786 25.4904 32.6786C29.3204 32.6786 32.4362 29.5628 32.4362 25.7329C32.4362 21.9029 29.3204 18.7871 25.4904 18.7871ZM25.4904 31.1895C22.4818 31.1895 20.0339 28.7417 20.0339 25.7329C20.0339 22.7243 22.4818 20.2763 25.4904 20.2763C28.4993 20.2763 30.947 22.7243 30.947 25.7329C30.947 28.7417 28.4993 31.1895 25.4904 31.1895Z" fill="#00A5C7"/>
<path d="M32.6024 16.3203C31.4706 16.3203 30.55 17.2411 30.55 18.3727C30.55 19.5045 31.4706 20.4253 32.6024 20.4253C33.7343 20.4253 34.655 19.5045 34.655 18.3727C34.655 17.2409 33.7343 16.3203 32.6024 16.3203ZM32.6024 18.9359C32.292 18.9359 32.0392 18.6832 32.0392 18.3727C32.0392 18.062 32.292 17.8095 32.6024 17.8095C32.9131 17.8095 33.1658 18.062 33.1658 18.3727C33.1658 18.6832 32.9131 18.9359 32.6024 18.9359Z" fill="#00A5C7"/>
</g>
<defs>
<clipPath id="clip0">
<rect width="25.4024" height="25.4024" fill="white" transform="translate(12.7893 13.0317)"/>
</clipPath>
</defs>
</svg>
