<svg width="40" height="40" viewBox="0 0 52 52" fill="none" xmlns="http://www.w3.org/2000/svg">
<circle cx="25.8402" cy="25.733" r="24.9024" fill="white" stroke="#1A2B39"/>
<g clip-path="url(#clip0)">
<path d="M20.2264 21.0361H15.2559V36.3173H20.2264V21.0361Z" fill="#1A2B39"/>
<path d="M33.7656 21.2153C33.7128 21.1987 33.6628 21.1806 33.6072 21.1653C33.5405 21.15 33.4738 21.1375 33.4058 21.1264C33.1418 21.0736 32.8529 21.0361 32.5139 21.0361C29.616 21.0361 27.7781 23.1435 27.1724 23.9576V21.0361H22.2019V36.3173H27.1724V27.9821C27.1724 27.9821 30.9288 22.7504 32.5139 26.5929C32.5139 30.0228 32.5139 36.3173 32.5139 36.3173H37.4831V26.0053C37.4831 23.6964 35.9008 21.7724 33.7656 21.2153Z" fill="#1A2B39"/>
<path d="M17.687 18.9525C19.0296 18.9525 20.118 17.8641 20.118 16.5214C20.118 15.1788 19.0296 14.0903 17.687 14.0903C16.3443 14.0903 15.2559 15.1788 15.2559 16.5214C15.2559 17.8641 16.3443 18.9525 17.687 18.9525Z" fill="#1A2B39"/>
</g>
<defs>
<clipPath id="clip0">
<rect width="22.2271" height="22.2271" fill="white" transform="translate(15.2559 14.0903)"/>
</clipPath>
</defs>
</svg>
