<svg width="100" height="100" viewBox="0 0 100 100" fill="none" xmlns="http://www.w3.org/2000/svg">
<g clip-path="url(#clip0)">
<path d="M74.8876 38.7715L72.6401 41.2282L82.8614 50.5981C85.2676 52.8119 86.6393 55.9311 86.6401 59.1998V99.9998H89.9735V59.1998C89.9693 54.9956 88.206 50.9865 85.1101 48.1411L74.8876 38.7715Z" fill="black"/>
<path d="M61.6401 0H18.3067C13.7067 0.00583333 9.97922 3.73333 9.97339 8.33333V91.6667C9.97922 96.2667 13.7067 99.9942 18.3067 100H59.9734V97.0183C59.9655 89.5104 62.188 82.1675 66.3601 75.925C66.8017 75.2633 66.713 74.3829 66.1517 73.8217L54.4851 62.155C53.4067 61.0754 52.8351 59.5908 52.9105 58.0671C52.9863 56.5425 53.7026 55.1225 54.8817 54.155C57.153 52.4188 60.3651 52.6667 62.3434 54.7296L78.7951 71.1817L81.1517 68.825L69.9734 57.6433V8.33333C69.9676 3.73333 66.2401 0.00583333 61.6401 0ZM66.6401 54.31L64.7001 52.37C61.5026 49.1033 56.3601 48.7629 52.7601 51.5808C50.8559 53.1458 49.7005 55.4433 49.5801 57.9062C49.4601 60.3688 50.3851 62.7675 52.1284 64.5117L62.8451 75.2288C58.8484 81.6692 56.7051 89.0875 56.6517 96.6667H18.3067C15.5459 96.6667 13.3067 94.4275 13.3067 91.6667V86.6667H54.9734V83.3333H13.3067V13.3333H66.6401V54.31ZM66.6401 10H13.3067V8.33333C13.3067 5.5725 15.5459 3.33333 18.3067 3.33333H61.6401C64.4009 3.33333 66.6401 5.5725 66.6401 8.33333V10Z" fill="black"/>
<path d="M19.9733 29.9998H26.64C28.4813 29.9998 29.9733 28.5078 29.9733 26.6665V19.9998C29.9733 18.1586 28.4813 16.6665 26.64 16.6665H19.9733C18.1321 16.6665 16.64 18.1586 16.64 19.9998V26.6665C16.64 28.5078 18.1321 29.9998 19.9733 29.9998ZM19.9733 19.9998H26.64V26.6665H19.9733V19.9998Z" fill="black"/>
<path d="M36.6401 29.9998H43.3068C45.148 29.9998 46.6401 28.5078 46.6401 26.6665V19.9998C46.6401 18.1586 45.148 16.6665 43.3068 16.6665H36.6401C34.7988 16.6665 33.3068 18.1586 33.3068 19.9998V26.6665C33.3068 28.5078 34.7988 29.9998 36.6401 29.9998ZM36.6401 19.9998H43.3068V26.6665H36.6401V19.9998Z" fill="black"/>
<path d="M53.3067 29.9998H59.9734C61.8146 29.9998 63.3067 28.5078 63.3067 26.6665V19.9998C63.3067 18.1586 61.8146 16.6665 59.9734 16.6665H53.3067C51.4655 16.6665 49.9734 18.1586 49.9734 19.9998V26.6665C49.9734 28.5078 51.4655 29.9998 53.3067 29.9998ZM53.3067 19.9998H59.9734V26.6665H53.3067V19.9998Z" fill="black"/>
<path d="M19.9733 46.6666H26.64C28.4813 46.6666 29.9733 45.1745 29.9733 43.3333V36.6666C29.9733 34.8253 28.4813 33.3333 26.64 33.3333H19.9733C18.1321 33.3333 16.64 34.8253 16.64 36.6666V43.3333C16.64 45.1745 18.1321 46.6666 19.9733 46.6666ZM19.9733 36.6666H26.64V43.3333H19.9733V36.6666Z" fill="black"/>
<path d="M19.9733 63.3333H26.64C28.4813 63.3333 29.9733 61.8412 29.9733 60V53.3333C29.9733 51.4921 28.4813 50 26.64 50H19.9733C18.1321 50 16.64 51.4921 16.64 53.3333V60C16.64 61.8412 18.1321 63.3333 19.9733 63.3333ZM19.9733 53.3333H26.64V60H19.9733V53.3333Z" fill="black"/>
<path d="M36.6401 46.6666H43.3068C45.148 46.6666 46.6401 45.1745 46.6401 43.3333V36.6666C46.6401 34.8253 45.148 33.3333 43.3068 33.3333H36.6401C34.7988 33.3333 33.3068 34.8253 33.3068 36.6666V43.3333C33.3068 45.1745 34.7988 46.6666 36.6401 46.6666ZM36.6401 36.6666H43.3068V43.3333H36.6401V36.6666Z" fill="black"/>
<path d="M53.3067 46.6666H59.9734C61.8146 46.6666 63.3067 45.1745 63.3067 43.3333V36.6666C63.3067 34.8253 61.8146 33.3333 59.9734 33.3333H53.3067C51.4655 33.3333 49.9734 34.8253 49.9734 36.6666V43.3333C49.9734 45.1745 51.4655 46.6666 53.3067 46.6666ZM53.3067 36.6666H59.9734V43.3333H53.3067V36.6666Z" fill="black"/>
<path d="M36.6401 63.3333H43.3068C45.148 63.3333 46.6401 61.8412 46.6401 60V53.3333C46.6401 51.4921 45.148 50 43.3068 50H36.6401C34.7988 50 33.3068 51.4921 33.3068 53.3333V60C33.3068 61.8412 34.7988 63.3333 36.6401 63.3333ZM36.6401 53.3333H43.3068V60H36.6401V53.3333Z" fill="black"/>
<path d="M19.9733 79.9998H26.64C28.4813 79.9998 29.9733 78.5078 29.9733 76.6665V69.9998C29.9733 68.1586 28.4813 66.6665 26.64 66.6665H19.9733C18.1321 66.6665 16.64 68.1586 16.64 69.9998V76.6665C16.64 78.5078 18.1321 79.9998 19.9733 79.9998ZM19.9733 69.9998H26.64V76.6665H19.9733V69.9998Z" fill="black"/>
<path d="M36.6401 79.9998H43.3068C45.148 79.9998 46.6401 78.5078 46.6401 76.6665V69.9998C46.6401 68.1586 45.148 66.6665 43.3068 66.6665H36.6401C34.7988 66.6665 33.3068 68.1586 33.3068 69.9998V76.6665C33.3068 78.5078 34.7988 79.9998 36.6401 79.9998ZM36.6401 69.9998H43.3068V76.6665H36.6401V69.9998Z" fill="black"/>
<path d="M38.3068 90H41.6401V93.3333H38.3068V90Z" fill="black"/>
</g>
<defs>
<clipPath id="clip0">
<rect width="100" height="100" fill="white"/>
</clipPath>
</defs>
</svg>
