<svg width="40" height="40" viewBox="0 0 52 52" fill="none" xmlns="http://www.w3.org/2000/svg">
<circle cx="26.1654" cy="25.733" r="24.9024" fill="white" stroke="#00A5C7"/>
<g clip-path="url(#clip0)">
<path d="M23.6047 35.1907C22.552 35.1907 21.4684 35.1055 20.3784 34.9346C18.4585 34.6334 16.515 33.6291 15.9651 33.3284L14.5227 32.5398L16.0843 32.0263C17.7914 31.465 18.8298 31.1168 20.1152 30.5715C18.8281 29.9482 17.8361 28.8269 17.3586 27.3775L16.9953 26.2746L17.2932 26.3201C17.0107 26.0354 16.7877 25.7464 16.6148 25.4836C15.9998 24.5495 15.6742 23.4082 15.7435 22.4302L15.8119 21.4675L16.3882 21.6908C16.145 21.2317 15.9693 20.7413 15.8661 20.2274C15.6144 18.9741 15.825 17.6426 16.4593 16.4783L16.9613 15.5567L17.6327 16.3631C19.7562 18.9139 22.4457 20.4271 25.6379 20.87C25.5075 19.9713 25.6052 19.1039 25.9285 18.3265C26.305 17.4212 26.9747 16.6536 27.8647 16.1064C28.8532 15.4989 30.0519 15.2045 31.24 15.2775C32.5005 15.355 33.645 15.8273 34.554 16.6443C34.9979 16.529 35.3249 16.4058 35.767 16.2394C36.0329 16.1393 36.3346 16.0257 36.712 15.8956L38.1027 15.4165L37.1958 18.0066C37.2556 18.0016 37.3172 17.9974 37.3817 17.9946L38.8668 17.9273L37.989 19.127C37.9387 19.1957 37.9259 19.2152 37.9081 19.2421C37.8373 19.3487 37.7493 19.4813 36.5444 21.0901C36.2428 21.493 36.0922 22.0177 36.1202 22.5678C36.227 24.6584 35.9705 26.5499 35.3574 28.1895C34.7776 29.7407 33.879 31.0716 32.687 32.1453C31.212 33.4737 29.3311 34.3832 27.0964 34.8483C26.0002 35.0763 24.8231 35.1907 23.6047 35.1907Z" fill="#00A5C7"/>
</g>
<defs>
<clipPath id="clip0">
<rect width="24.344" height="24.344" fill="white" transform="translate(14.5227 13.0317)"/>
</clipPath>
</defs>
</svg>
