<svg width="112" height="112" viewBox="0 0 112 112" fill="none" xmlns="http://www.w3.org/2000/svg">
<g clip-path="url(#clip0)">
<path d="M110.627 43.6982C104.877 18.1576 82.1915 0.0142788 56.0114 0.0173404C33.0315 0.0064062 12.3788 14.04 3.92648 35.4091C-4.52585 56.7781 0.939043 81.1423 17.7088 96.854C34.4785 112.566 59.1464 116.434 79.9202 106.609C79.9353 106.602 79.9515 106.605 79.9664 106.598C79.9806 106.592 79.9887 106.578 80.0027 106.571C103.658 95.3539 116.378 69.2387 110.627 43.6982ZM84.5808 12.2846L74.0147 15.9832C73.8004 16.0591 73.6014 16.1732 73.428 16.3204C71.2042 18.088 69.1455 20.0538 67.2775 22.1938C66.0494 23.0714 64.7093 23.7806 63.2929 24.3023C56.9721 24.7469 49.2598 25.4996 47.6907 26.5876C45.77 27.9253 45.4492 32.0674 45.5174 35.3076C45.5238 35.5934 45.5957 35.874 45.728 36.1276L50.8634 46.0049C51.7123 47.5902 53.6739 48.2044 55.2753 47.3863C55.7072 47.1694 56.1446 46.9254 56.5846 46.6793C56.9436 46.4788 57.3045 46.2765 57.7381 46.0541C58.3841 45.7298 59.1869 45.3342 59.5814 45.4473C59.6877 45.4801 59.7898 45.5253 59.8858 45.5822C59.7515 45.9094 59.544 46.2011 59.2789 46.4351C57.9504 47.8856 56.6401 49.3508 55.3262 50.8634L50.9298 55.9423C50.7805 56.1136 50.6318 56.285 50.4168 56.5509C49.103 58.3734 48.5451 60.6335 48.8596 62.8582L49.0428 64.1084C49.2265 65.398 48.8906 66.7077 48.1088 67.7495L44.4295 72.7317C44.1124 73.1446 43.8388 73.5892 43.6131 74.0585L39.7361 82.1262H36.6688C37.5449 81.2381 37.8954 79.9579 37.5937 78.7475L34.0372 64.38H34.0398C34.0147 64.2352 33.9779 64.0927 33.9305 63.9536L31.3618 57.0486C31.258 56.767 31.2055 56.4687 31.207 56.1684V55.8332C31.2171 53.4353 29.859 51.2417 27.7081 50.182L27.5441 50.1092C26.4692 49.5511 25.2523 49.3258 24.0488 49.4623L19.0073 50.0237C18.1932 50.1153 17.3875 49.7914 16.8631 49.1618L13.6977 45.4186C13.3073 44.9539 13.0926 44.367 13.0908 43.7604V40.4565C13.0821 39.7836 13.3419 39.135 13.8125 38.6541L17.8927 34.5337C18.2502 34.1669 18.564 33.7604 18.8284 33.3217L20.146 31.0839C20.5862 30.3299 21.396 29.8691 22.269 29.8757H27.6705C28.3829 29.872 29.0609 30.1827 29.5229 30.7249C30.7047 32.0208 32.3759 32.7619 34.1299 32.7678H36.1162C36.9385 32.7678 37.6636 32.2296 37.902 31.4428L39.6278 25.7516C39.8363 25.0618 39.6296 24.3137 39.0967 23.8289C38.0196 22.854 37.1233 21.6967 36.4488 20.4102C35.2314 17.4652 29.9148 15.5609 28.4577 15.3313C27.5043 14.7881 26.6105 14.146 25.7918 13.4156C43.281 0.953524 66.6256 0.504567 84.5808 12.2846ZM27.2784 99.6495C12.5931 89.9845 3.75481 73.5807 3.76071 56.0003C3.75787 40.4169 10.7221 25.6486 22.7468 15.7367C26.1386 18.5774 27.2093 18.9448 27.9298 19.0244C29.8402 19.4856 31.5908 20.454 32.9969 21.8273C33.6746 23.2815 34.5994 24.6072 35.7305 25.7454L34.7326 29.0349H34.1304C33.4376 29.0325 32.7767 28.7436 32.3044 28.2367C31.1342 26.9031 29.4451 26.1399 27.6711 26.1428H22.2696C20.0769 26.1452 18.0477 27.3031 16.93 29.1897L15.6361 31.3892C15.5246 31.5733 15.3934 31.745 15.2453 31.9014L11.1631 36.0236C9.99691 37.2025 9.34764 38.7971 9.35901 40.4556V43.7595C9.36251 45.2439 9.88647 46.68 10.8397 47.8178L14.0143 51.5702C15.3452 53.1506 17.3779 53.9615 19.4313 53.7314L24.4611 53.172C24.9612 53.1161 25.4666 53.2167 25.9072 53.4601L26.0903 53.5438C26.9492 53.9818 27.4859 54.8686 27.4752 55.8328V56.168C27.4736 56.919 27.6075 57.6642 27.8706 58.3675L30.3863 65.1266C30.3944 65.1649 30.4018 65.1994 30.4073 65.2195L33.9508 79.5634L33.5963 79.9061C32.5685 81.0238 32.3282 82.6562 32.9904 84.0228C33.5585 85.146 34.7092 85.8551 35.9682 85.858H39.7359C41.0935 85.8595 42.3334 85.0871 42.9304 83.868L46.9752 75.6783C47.0981 75.4268 47.2463 75.1886 47.418 74.9676L51.1028 69.9761C52.4733 68.1473 53.0613 65.8491 52.7375 63.5868L52.5542 62.3331C52.3753 61.1022 52.6682 59.8491 53.3743 58.825L53.7406 58.3968C53.8856 58.2311 54.0303 58.0651 54.1425 57.9284L58.1462 53.307C59.4355 51.8254 60.7264 50.3797 62.0186 48.9698C63.1912 47.9591 63.7622 46.4167 63.5304 44.8861C63.1903 43.4454 62.1032 42.2982 60.6829 41.881C59.0526 41.5425 57.3548 41.862 55.9593 42.7704C55.5594 42.9764 55.1594 43.1986 54.7621 43.421C54.4915 43.5721 54.2226 43.7234 53.9566 43.8655L49.244 34.8011C49.176 33.0604 49.3923 31.3203 49.8845 29.6494C54.4953 28.7812 59.1602 28.2319 63.8466 28.0055C64.0384 27.9915 64.2271 27.9485 64.406 27.878C66.6912 26.9705 69.5905 25.5928 70.4152 24.2042C72.024 22.4855 73.7477 20.8782 75.5744 19.3931L88.2764 14.9475C97.3716 22.0928 103.844 32.049 106.684 43.2611L106.006 42.9051C104.741 42.2353 103.298 41.9785 101.879 42.1707L92.2544 43.4374C90.4614 43.6436 89.1102 45.1643 89.1163 46.9691V48.6858H87.1755C85.938 48.6932 84.7888 49.3289 84.1249 50.3733L83.5025 51.3537C81.9048 53.8965 81.5044 57.0128 82.4073 59.8769L83.8843 64.6315L82.5768 65.0835C81.6231 65.4203 80.8567 66.1454 80.4674 67.079C80.0878 67.9988 80.1149 69.036 80.542 69.9346L84.8736 79.1247L82.1246 79.1575L76.9136 75.0008C75.9872 74.2982 74.7821 74.0777 73.667 74.4066L65.9794 76.7247C64.8119 77.0921 63.9135 78.0313 63.5982 79.2139C63.283 80.3966 63.5949 81.6584 64.4248 82.5581L65.4937 83.7024C65.8852 84.1017 66.3621 84.407 66.8887 84.5953L70.0251 85.5975V89.0674C70.0321 89.5927 70.1436 90.1112 70.3531 90.5927L76.6697 103.985C60.5259 110.944 41.9638 109.314 27.2784 99.6495ZM80.0375 102.376L73.7575 89.0672V85.5973C73.7602 84.0775 72.8036 82.7212 71.3713 82.2132L68.1811 81.1143L67.3383 80.2105L74.6286 77.9489L79.784 82.0619C80.4261 82.5736 81.2227 82.8524 82.0437 82.8528H85.1035C86.3281 82.8592 87.4716 82.241 88.1368 81.2127C88.7962 80.1926 88.8869 78.9058 88.3774 77.803L84.0094 68.5363L85.2913 68.0935C87.0861 67.4543 88.0601 65.5158 87.5018 63.6942L85.9682 58.7574C85.3939 56.9378 85.6474 54.9578 86.6616 53.3413L87.1755 52.4174H89.2648C91.2327 52.4255 92.8359 50.8391 92.8486 48.871V47.1233L102.387 45.8676C103.038 45.7788 103.701 45.9002 104.279 46.2138L105.023 46.6039C105.805 47.0063 106.656 47.2575 107.532 47.3441C111.316 69.7165 100.199 91.9676 80.0375 102.376Z" fill="black"/>
</g>
<defs>
<clipPath id="clip0">
<rect width="112" height="112" fill="white"/>
</clipPath>
</defs>
</svg>
