<svg width="355" height="338" viewBox="0 0 355 338" fill="none" xmlns="http://www.w3.org/2000/svg">
<circle cx="347.455" cy="167.196" r="5.90847" fill="white" stroke="#00A5C7" stroke-width="2"/>
<path d="M10.9726 174.917L1.47029 162.726L20.4748 162.726L10.9726 174.917Z" fill="#00A5C7"/>
<path d="M9.87866 166.79C9.87866 188.867 14.2271 210.728 22.6757 231.125C31.1243 251.522 43.5077 270.055 59.1187 285.666C74.7297 301.277 93.2627 313.66 113.659 322.109C134.056 330.557 155.917 334.906 177.995 334.906C200.072 334.906 221.933 330.557 242.33 322.109C262.727 313.66 281.26 301.277 296.871 285.666C312.482 270.055 324.865 251.522 333.314 231.125C341.762 210.728 346.111 188.867 346.111 166.79" stroke="#00A5C7" stroke-width="3" stroke-miterlimit="1.55572" stroke-dasharray="3 20"/>
</svg>
